<?xml version="1.0" standalone="no"?><!DOCTYPE svg PUBLIC "-//W3C//DTD SVG 1.1//EN" "http://www.w3.org/Graphics/SVG/1.1/DTD/svg11.dtd"><svg t="1718539814541" class="icon" viewBox="0 0 1024 1024" version="1.1" xmlns="http://www.w3.org/2000/svg" p-id="1485" width="128" height="128" xmlns:xlink="http://www.w3.org/1999/xlink"><path d="M648.32 715.072l-124.992 125.056a224 224 0 0 1-316.8 0l-22.656-22.656a224 224 0 0 1 0-316.8L308.48 376.064l63.488 63.232-124.736 124.8a134.4 134.4 0 0 0-6.528 183.04l6.528 7.04 22.656 22.592a134.4 134.4 0 0 0 183.04 6.528l7.04-6.528 124.928-124.992 63.36 63.296z m-44.288-295.04a44.8 44.8 0 0 1 0 63.36L484.736 602.56a44.8 44.8 0 1 1-63.36-63.36l119.296-119.232a44.8 44.8 0 0 1 63.36 0z m236.032-213.504a224 224 0 0 1 0 316.8l-123.84 123.84-63.488-63.296 123.968-123.904a134.4 134.4 0 0 0 6.592-183.04l-6.592-7.04-22.592-22.592a134.4 134.4 0 0 0-183.04-6.592l-7.04 6.592-124.224 124.16-63.488-63.232 124.352-124.288a224 224 0 0 1 316.8 0l22.592 22.592z" p-id="1486" fill="#ffffff"></path></svg>