<?xml version="1.0" standalone="no"?><!DOCTYPE svg PUBLIC "-//W3C//DTD SVG 1.1//EN" "http://www.w3.org/Graphics/SVG/1.1/DTD/svg11.dtd"><svg t="1697785690217" class="icon" viewBox="0 0 1024 1024" version="1.1" xmlns="http://www.w3.org/2000/svg" p-id="6213" xmlns:xlink="http://www.w3.org/1999/xlink" width="200" height="200"><path d="M42.666667 256C42.666667 138.197333 138.24 42.666667 255.957333 42.666667h512.085334C885.76 42.666667 981.333333 138.304 981.333333 256c0 117.802667-95.573333 213.333333-213.290666 213.333333H255.957333C138.24 469.333333 42.666667 373.696 42.666667 256z m85.333333 0c0 70.570667 57.386667 128 127.957333 128h512.085334A128.042667 128.042667 0 0 0 896 256c0-70.570667-57.386667-128-127.957333-128H255.957333A128.042667 128.042667 0 0 0 128 256zM42.666667 768c0-117.802667 95.573333-213.333333 213.290666-213.333333h512.085334C885.76 554.666667 981.333333 650.304 981.333333 768c0 117.802667-95.573333 213.333333-213.290666 213.333333H255.957333C138.24 981.333333 42.666667 885.696 42.666667 768z m85.333333 0c0 70.570667 57.386667 128 127.957333 128h512.085334A128.042667 128.042667 0 0 0 896 768c0-70.570667-57.386667-128-127.957333-128H255.957333A128.042667 128.042667 0 0 0 128 768z m128 85.333333a85.333333 85.333333 0 1 1 0-170.666666 85.333333 85.333333 0 0 1 0 170.666666z m512-512a85.333333 85.333333 0 1 1 0-170.666666 85.333333 85.333333 0 0 1 0 170.666666z" fill="#bac1cf" p-id="6214"></path></svg>
