<?xml version="1.0" standalone="no"?><!DOCTYPE svg PUBLIC "-//W3C//DTD SVG 1.1//EN" "http://www.w3.org/Graphics/SVG/1.1/DTD/svg11.dtd"><svg t="1694088508762" class="icon" viewBox="0 0 1024 1024" version="1.1" xmlns="http://www.w3.org/2000/svg" p-id="4006" xmlns:xlink="http://www.w3.org/1999/xlink" width="200" height="200"><path d="M133.12 215.04h757.76l-34.048 690.11456A81.92 81.92 0 0 1 775.0144 983.04h-526.0288a81.92 81.92 0 0 1-81.8176-77.88544L133.12 215.04z" fill="#ffffff" p-id="4007"></path><path d="M51.2 225.28a81.92 81.92 0 0 1 81.92-81.92h757.76a81.92 81.92 0 0 1 81.92 81.92v20.48a40.96 40.96 0 0 1-40.96 40.96H92.16a40.96 40.96 0 0 1-40.96-40.96v-20.48z" fill="#ffffff" stroke="gray" stroke-width="4" p-id="4008"></path><path d="M257.87392 462.592A40.96 40.96 0 0 1 298.8032 419.84H307.2a40.96 40.96 0 0 1 40.96 40.96v341.20704a37.67296 37.67296 0 0 1-75.30496 1.64864l-14.98112-341.06368zM471.04 460.8a40.96 40.96 0 0 1 40.96-40.96h10.24a40.96 40.96 0 0 1 40.96 40.96v337.92a40.96 40.96 0 0 1-40.96 40.96h-10.24a40.96 40.96 0 0 1-40.96-40.96V460.8z m256-40.96a40.96 40.96 0 0 0-40.96 40.96v341.20704a37.67296 37.67296 0 0 0 75.3152 1.64864l14.97088-341.06368A40.96 40.96 0 0 0 735.4368 419.84H727.04z" p-id="4009"></path><path d="M409.6 112.64a81.92 81.92 0 0 1 81.92-81.92h40.96a81.92 81.92 0 0 1 81.92 81.92v30.72H409.6v-30.72z" fill="#ffffff" stroke="gray" stroke-width="4" p-id="4010"></path></svg>
