<?xml version="1.0" encoding="UTF-8"?>
<svg width="250px" height="30px" viewBox="0 0 250 36" version="1.1" xmlns="http://www.w3.org/2000/svg" xmlns:xlink="http://www.w3.org/1999/xlink">
    <title>logo</title>
    <defs>
      <linearGradient x1="50%" y1="0%" x2="50%" y2="100%" id="linearGradient">
        <stop stop-color="#FFFFFF" offset="0%" />
        <stop stop-color="#E8FF2B" offset="100%" />
      </linearGradient>
    </defs>
    <g id="outer-container" stroke-width="1" fill="none" fill-rule="evenodd">
        <g id="inner-container" transform="translate(-116.000000, -168.000000)" fill="#3B3B3B" fill-rule="nonzero">
            <g id="logo" transform="translate(112.500000, 154.000000)">
              <text id="font-meme" font-family="DINPro-Bold, DIN Pro" font-size="44.0769231" font-weight="bold" letter-spacing="-3.45701357" fill="#FFFFFF">
                  <tspan x="0.0011040724" y="46">MEME</tspan>
              </text>
              <g id="group-fun" transform="matrix(1,0,0,1,120,13.6)">
                  <polygon transform="matrix(1,0,0,1.06,0,-0.8)" id="path-f" fill="#e6ff21" points="34.1,5.1 19.5,5.1 19.5,12.9 32,12.9 32,18.3 19.5,18.3 19.5,31.1 13.4,31.1 13.4,-0.3 34.1,-0.3"/>
                  <path transform="matrix(1,0,0,1.06,0,-0.8)" id="path-u" fill="url(#linearGradient)" d="M 43.9 9.7 C 43.9 18 50.6 24.7 58.9 24.7 C 67.2 24.7 73.9 18 73.9 9.7 L 79.9 9.7 C 79.9 21.3 70.5 30.7 58.9 30.7 C 47.3 30.7 37.9 21.3 37.9 9.7 L 43.9 9.7 Z M 37.5 -0.3 L 43.5 -0.3 L 43.5 5.2 L 37.5 5.2 L 37.5 -0.3 Z M 74.5 -0.3 L 80.6 -0.3 L 80.6 5.2 L 74.5 5.2 L 74.5 -0.3 Z"/>
                  <polygon transform="matrix(1,0,0,1.06,0,-0.8)" id="path-n" fill="#e6ff21" points="108,31.1 102.5,31.1 90.1,11.9 90.1,31.1 83.9,31.1 83.9,-0.3 89.4,-0.3 101.8,18.9 101.8,-0.3 108,-0.3"/>
              </g>
            </g>
        </g>
    </g>
</svg>
